<?xml version="1.0" standalone="no"?>
<!DOCTYPE svg PUBLIC "-//W3C//DTD SVG 20010904//EN"
 "http://www.w3.org/TR/2001/REC-SVG-20010904/DTD/svg10.dtd">
<svg version="1.0" xmlns="http://www.w3.org/2000/svg"
 width="1024.000000pt" height="1024.000000pt" viewBox="0 0 1024.000000 1024.000000"
 preserveAspectRatio="xMidYMid meet">
<metadata>
Created by potrace 1.14, written by Peter Selinger 2001-2017
</metadata>
<g transform="translate(0.000000,1024.000000) scale(0.100000,-0.100000)"
fill="#000000" stroke="none">
<path d="M6985 8816 c-114 -36 -165 -82 -195 -173 -52 -157 -142 -305 -259
-426 -89 -92 -177 -153 -287 -200 -78 -34 -79 -34 -103 -93 -16 -39 -26 -86
-29 -141 -4 -70 -1 -88 18 -128 38 -78 142 -136 246 -138 l46 0 -7 -36 c-3
-20 -27 -97 -52 -171 -42 -123 -47 -144 -47 -230 0 -151 50 -322 150 -510 98
-184 259 -397 354 -468 154 -114 209 -161 331 -282 74 -74 153 -162 175 -195
33 -52 39 -68 39 -115 0 -134 -128 -274 -284 -310 -61 -14 -127 -10 -290 19
-206 38 -373 25 -508 -40 -72 -34 -192 -126 -244 -188 l-36 -41 -32 89 c-39
107 -103 244 -137 289 -14 17 -58 55 -99 82 -43 29 -87 69 -104 94 -37 54 -75
146 -64 157 4 4 54 26 110 49 190 76 392 105 612 88 67 -5 125 -7 127 -5 3 2
-31 24 -73 49 -141 82 -285 198 -444 357 -274 275 -467 551 -659 942 -119 242
-258 610 -315 837 -11 39 -22 72 -27 72 -10 0 -8 6 -14 -55 -68 -671 -304
-1358 -634 -1850 -122 -180 -322 -408 -454 -515 -60 -49 -76 -81 -28 -57 91
47 285 87 415 87 88 0 205 -17 225 -32 27 -23 -1 -168 -56 -283 -39 -80 -135
-216 -189 -268 l-29 -27 -18 40 c-22 50 -87 107 -185 163 -87 50 -142 71 -326
122 -186 51 -294 107 -393 203 -100 97 -127 151 -127 247 1 130 -13 112 441
569 55 55 113 119 129 141 16 22 46 63 67 91 50 67 66 138 70 309 4 237 -25
371 -102 458 -42 48 -35 71 18 62 50 -8 112 16 175 68 125 103 130 268 10 349
-40 27 -72 38 -166 58 -73 15 -117 52 -152 128 -15 31 -40 82 -55 113 -16 31
-36 84 -44 118 -18 76 -81 185 -135 234 -119 107 -230 109 -401 8 -82 -49
-104 -76 -161 -195 l-42 -88 18 -57 c13 -37 38 -78 75 -121 89 -103 120 -146
160 -224 55 -105 59 -148 23 -222 -24 -51 -28 -71 -28 -149 0 -78 4 -98 27
-145 31 -63 82 -102 167 -126 78 -23 144 -8 229 53 l23 16 -3 -79 -3 -79 35
-11 c19 -6 36 -16 38 -22 2 -6 -15 -36 -37 -66 -23 -30 -41 -60 -41 -65 0 -6
9 -28 21 -50 24 -47 16 -73 -30 -89 -35 -12 -61 -57 -61 -107 0 -29 -4 -35
-21 -35 -11 0 -34 -13 -50 -30 -25 -24 -29 -36 -27 -70 2 -48 -10 -60 -64 -60
-25 0 -45 -7 -59 -21 -21 -21 -22 -47 -3 -115 8 -29 -19 -53 -67 -60 -22 -4
-51 -15 -64 -26 -22 -17 -25 -28 -25 -79 l0 -59 -30 0 c-106 0 -172 -99 -126
-189 19 -35 12 -44 -55 -74 -69 -30 -99 -66 -99 -119 0 -31 6 -46 30 -68 39
-37 38 -53 -7 -87 -79 -60 -93 -79 -93 -125 0 -53 20 -83 66 -103 19 -8 34
-19 34 -25 0 -6 -14 -40 -31 -76 -26 -54 -31 -72 -25 -110 8 -60 30 -101 66
-119 36 -19 57 -19 94 0 36 19 46 19 46 0 0 -7 6 -18 14 -22 7 -4 19 -25 25
-45 9 -27 20 -39 43 -47 49 -17 92 -13 130 13 29 19 44 23 82 19 36 -4 46 -10
46 -24 0 -29 49 -78 89 -89 49 -13 99 2 136 40 23 24 37 30 71 30 35 0 43 -4
48 -23 16 -66 118 -107 183 -74 38 20 63 6 66 -38 2 -27 -1 -30 -33 -33 -46
-5 -63 -22 -85 -86 l-18 -53 -76 39 c-42 21 -112 52 -156 67 -44 16 -118 46
-165 67 -81 36 -90 38 -190 37 -117 0 -196 -16 -326 -69 l-82 -33 -94 16 c-51
8 -157 16 -235 17 -132 1 -143 0 -172 -21 -40 -31 -65 -31 -55 0 32 103 137
165 293 172 40 2 78 8 83 13 18 18 3 46 -27 55 -17 5 -45 15 -62 23 -90 38
-233 37 -346 -2 -66 -22 -149 -101 -186 -176 -17 -34 -31 -66 -31 -72 0 -7 -8
-28 -19 -48 -10 -20 -27 -64 -37 -96 -16 -50 -23 -61 -49 -68 -35 -11 -75 -66
-75 -104 0 -15 10 -36 24 -49 38 -36 45 -68 29 -126 -26 -94 -27 -137 -4 -167
12 -14 34 -29 49 -33 21 -4 31 -14 38 -38 6 -20 20 -38 40 -47 29 -15 30 -17
18 -45 -25 -59 -7 -151 35 -175 46 -26 46 -28 26 -50 -22 -25 -24 -83 -10
-447 4 -101 4 -183 0 -183 -3 0 -15 4 -25 10 -14 8 -21 5 -34 -15 -9 -13 -16
-26 -16 -29 0 -3 32 -22 70 -42 39 -20 69 -38 67 -40 -2 -2 -28 9 -58 26 -30
16 -59 30 -65 30 -18 0 -47 -134 -39 -178 4 -20 22 -86 42 -145 30 -94 39
-111 66 -128 18 -10 43 -19 56 -19 13 0 32 -11 43 -25 11 -14 26 -25 34 -25
12 0 14 -34 14 -205 0 -163 3 -213 15 -243 23 -53 82 -111 123 -118 18 -4 35
-12 37 -18 1 -6 8 -31 15 -54 15 -57 88 -132 127 -132 16 0 58 9 95 19 38 11
103 22 145 26 119 10 297 52 408 96 284 113 466 307 534 569 l20 75 2 -150 c1
-82 2 -179 4 -215 3 -103 38 -152 119 -171 l52 -11 11 -60 c15 -77 47 -113
122 -134 31 -9 64 -20 73 -25 27 -14 238 -59 275 -59 46 0 64 11 97 58 26 39
27 43 27 188 1 146 1 150 29 194 21 33 33 71 44 142 25 154 23 172 -25 219
-46 45 -44 28 -23 201 l6 48 169 0 c180 0 223 8 251 48 14 20 16 19 128 -47
l115 -68 6 -62 c5 -47 12 -68 32 -89 14 -15 42 -56 63 -92 57 -100 241 -345
269 -360 14 -8 34 -32 44 -55 21 -48 179 -205 253 -252 81 -51 170 -78 263
-78 59 0 87 4 105 17 14 9 55 22 91 27 133 21 209 62 305 164 81 84 118 145
152 252 47 143 64 266 63 465 0 96 -2 185 -5 197 -4 20 -1 23 26 23 18 0 42
-10 60 -25 16 -14 37 -25 46 -25 9 -1 35 -9 57 -20 22 -11 52 -19 67 -20 15 0
29 -3 31 -7 2 -5 -2 -93 -9 -198 -15 -212 -12 -234 39 -292 36 -41 81 -63 131
-63 33 0 34 -2 41 -47 10 -66 75 -133 129 -133 l36 0 -47 -90 c-25 -49 -44
-93 -40 -96 15 -15 72 -4 109 23 22 15 70 60 107 99 l66 72 140 6 c77 4 170 9
206 12 50 5 73 2 97 -10 25 -13 65 -17 182 -18 l150 -1 42 29 c23 16 49 41 57
56 16 28 17 28 118 28 58 0 113 5 128 12 32 14 85 113 85 157 0 16 -7 60 -16
98 -10 40 -18 125 -19 205 -2 75 -6 146 -10 157 -3 12 -31 37 -60 57 -47 31
-61 35 -102 32 l-48 -3 -3 63 c-2 34 1 62 6 62 25 0 32 59 32 271 0 199 -2
223 -20 258 -23 46 -103 91 -161 91 -37 0 -38 1 -44 44 -16 103 -65 138 -202
144 l-93 4 0 45 0 45 38 -5 c20 -3 129 -11 242 -18 188 -11 208 -11 237 5 38
19 63 53 72 98 5 25 13 34 39 40 18 5 32 13 32 19 0 6 13 -3 30 -19 76 -76
186 -41 197 62 4 29 11 46 19 46 7 0 15 8 19 19 5 15 13 18 48 14 50 -6 91 21
113 73 22 51 18 85 -12 109 l-26 21 22 44 c30 59 45 160 45 305 -1 268 -84
439 -251 517 -176 82 -388 25 -494 -134 -22 -33 -40 -67 -40 -74 0 -22 41 -16
85 11 102 63 141 68 220 31 76 -35 140 -98 176 -171 27 -54 31 -73 27 -117 -6
-72 -32 -121 -80 -155 -37 -25 -49 -28 -122 -28 -87 1 -125 15 -271 99 -126
73 -164 80 -415 82 -124 0 -250 4 -281 8 l-57 8 11 35 c15 47 45 67 81 53 91
-34 203 30 267 154 39 75 35 106 -17 141 -27 19 -29 23 -19 47 6 15 26 37 45
50 58 39 82 85 78 144 -5 64 -34 105 -92 132 -24 12 -46 28 -49 36 -4 9 -13
16 -22 16 -12 0 -8 10 16 39 38 48 34 85 -17 136 -43 43 -99 60 -153 45 -21
-5 -46 -7 -55 -4 -15 6 -14 10 4 39 11 18 20 39 20 47 0 19 -95 125 -119 133
-13 4 -29 -3 -47 -20 -44 -41 -65 -30 -79 38 -18 89 -90 153 -121 108 -28 -40
-44 -26 -44 38 0 80 -27 115 -91 117 -66 2 -76 9 -71 51 8 69 -35 118 -114
128 -16 2 -31 4 -34 5 -3 1 -13 1 -23 0 -15 -1 -14 4 8 36 26 38 29 51 19 79
-7 18 -55 45 -80 45 -9 0 -28 12 -41 26 -23 25 -23 27 -7 45 37 41 9 149 -39
149 -49 0 -66 44 -36 93 19 32 25 92 11 114 -4 6 -20 16 -35 22 -32 12 -35 37
-8 65 35 38 48 176 16 176 -23 0 -29 63 -10 103 l16 35 52 -53 c62 -61 126
-87 218 -86 108 0 181 38 222 114 19 36 22 57 22 147 0 81 -4 112 -17 135 -81
141 -103 236 -102 430 1 162 13 221 83 415 50 139 38 222 -41 270 -39 23 -148
27 -213 6z m-189 -4082 c41 -7 83 8 115 42 16 17 33 24 61 24 21 0 38 -4 38
-9 0 -5 22 -32 49 -60 46 -47 48 -51 28 -57 -12 -4 -41 -19 -64 -35 -41 -27
-43 -27 -94 -14 -29 8 -109 21 -178 30 -69 9 -136 19 -149 21 l-22 4 20 22
c11 13 20 36 20 54 0 32 1 33 48 36 41 3 50 -1 70 -24 13 -15 38 -30 58 -34z
m-4303 -42 c26 -2 47 -7 47 -11 0 -4 -26 -4 -57 0 -32 3 -108 7 -169 8 -98 2
-113 0 -137 -19 -30 -24 -64 -33 -72 -19 -4 5 5 9 19 9 14 0 35 9 46 20 19 19
32 21 148 19 70 -1 148 -4 175 -7z m1272 -1 c-26 -11 -44 -46 -48 -96 l-4 -40
-1 43 c-2 56 21 102 51 101 21 0 21 -1 2 -8z m3613 -6 c4 -4 -28 -4 -71 0
l-78 6 -40 -39 c-21 -22 -39 -35 -39 -30 0 6 17 26 37 45 37 35 37 35 111 30
40 -3 77 -8 80 -12z m341 -21 c8 -7 -134 -2 -159 6 -14 4 16 5 65 2 50 -2 92
-6 94 -8z m-5007 -24 c81 -26 155 -59 137 -60 -3 0 -33 11 -66 25 -33 13 -94
33 -134 44 -41 11 -64 20 -52 20 13 1 64 -13 115 -29z m1483 20 c95 -10 106
-11 305 -32 69 -7 115 -14 102 -16 -25 -4 -524 46 -531 54 -7 6 25 5 124 -6z
m3878 -21 c97 -7 177 -16 177 -21 0 -4 -17 -6 -37 -3 -21 3 -125 12 -231 19
-107 8 -197 18 -200 21 -4 4 20 5 53 2 33 -4 140 -12 238 -18z m-943 -24 c0
-8 -61 -37 -67 -32 -3 3 8 12 24 21 29 16 43 19 43 11z m1180 -25 c13 -8 13
-10 -2 -10 -9 0 -20 5 -23 10 -8 13 5 13 25 0z m-5330 -76 c0 -2 -9 0 -20 6
-11 6 -20 13 -20 16 0 2 9 0 20 -6 11 -6 20 -13 20 -16z m737 -196 c-1 -40 -3
-8 -3 72 0 80 2 112 3 73 2 -40 2 -106 0 -145z m4743 113 c0 -9 -109 -5 -118
4 -3 3 22 5 56 5 34 0 62 -4 62 -9z m-3704 -24 c4 -4 -7 -7 -25 -7 -18 0 -30
4 -27 8 6 10 42 9 52 -1z m44 -3 c0 -2 -7 -4 -15 -4 -8 0 -15 4 -15 10 0 5 7
7 15 4 8 -4 15 -8 15 -10z m-1575 -152 c-3 -3 -11 0 -18 7 -9 10 -8 11 6 5 10
-3 15 -9 12 -12z m3413 -4 c7 -7 12 -25 12 -41 0 -26 3 -29 25 -25 23 5 25 3
25 -36 0 -22 5 -59 11 -81 13 -44 67 -102 101 -107 20 -3 23 -8 20 -39 -1 -20
2 -49 8 -64 15 -39 -1 -54 -53 -48 -34 4 -49 0 -76 -21 -26 -19 -47 -26 -80
-26 -43 1 -48 3 -72 44 -15 24 -43 94 -64 157 -21 63 -47 132 -58 154 -18 37
-19 40 -2 50 9 5 42 29 72 53 57 43 106 55 131 30z m-2918 -103 c0 -79 -2 -86
-27 -109 -15 -14 -30 -23 -33 -20 -3 3 7 16 23 28 25 21 27 26 27 104 0 45 2
82 5 82 3 0 5 -38 5 -85z m3327 -92 c-3 -10 -5 -4 -5 12 0 17 2 24 5 18 2 -7
2 -21 0 -30z m-3543 -12 c10 -11 31 -25 47 -32 39 -16 35 -46 -8 -72 l-32 -18
-29 63 c-16 35 -27 66 -25 71 7 13 29 7 47 -12z m3605 -237 c-8 -10 -33 -14
-82 -14 -83 0 -83 12 0 15 32 1 64 3 71 4 7 0 13 20 14 54 l2 52 3 -48 c3 -28
-1 -55 -8 -63z m-829 71 c0 -11 -10 -15 -32 -14 -31 2 -31 2 -5 6 15 2 27 9
27 14 0 5 2 9 5 9 3 0 5 -7 5 -15z m-107 -88 c42 -16 75 -32 73 -34 -5 -5
-238 87 -251 99 -5 5 15 0 45 -12 30 -12 90 -36 133 -53z m-3316 -30 c-26 -43
-58 -71 -114 -100 -57 -30 -60 -18 -3 13 65 35 116 89 126 134 5 21 9 25 12
13 2 -10 -8 -37 -21 -60z m2146 64 c-77 -7 -95 -24 -104 -94 l-6 -52 -2 51
c-1 42 4 56 24 78 21 23 31 26 87 24 l63 -1 -62 -6z m-2229 -17 c12 -5 13 -9
3 -25 -16 -26 -27 -24 -27 6 0 27 1 28 24 19z m4125 -48 c-23 -40 -37 -44 -17
-5 21 39 30 51 34 46 3 -2 -5 -21 -17 -41z m-4829 -21 l0 -55 -54 0 c-47 0
-57 -4 -75 -26 -12 -15 -21 -21 -21 -14 0 31 33 50 87 50 l53 0 0 50 c0 28 2
50 5 50 3 0 5 -25 5 -55z m1647 -12 c-2 -16 -4 -5 -4 22 0 28 2 40 4 28 2 -13
2 -35 0 -50z m2278 27 c3 -5 1 -10 -4 -10 -6 0 -11 5 -11 10 0 6 2 10 4 10 3
0 8 -4 11 -10z m-1225 -10 c10 -6 6 -9 -16 -8 -38 1 -53 -7 -64 -36 -7 -17 -9
-17 -9 -3 -1 22 34 57 57 57 9 0 24 -4 32 -10z m1523 3 c-7 -2 -19 -2 -25 0
-7 3 -2 5 12 5 14 0 19 -2 13 -5z m523 -14 c21 -11 30 -17 19 -14 -68 22 -66
23 -190 -97 -64 -62 -131 -120 -149 -129 -27 -15 -32 -23 -37 -70 l-6 -54 -1
57 c-2 58 -2 58 38 78 22 11 91 72 154 135 64 63 119 115 124 115 5 0 26 -9
48 -21z m-959 -51 c-2 -13 -4 -3 -4 22 0 25 2 35 4 23 2 -13 2 -33 0 -45z
m-2197 47 c0 -3 -9 -14 -19 -24 -22 -22 -81 -38 -81 -22 0 6 13 11 30 11 19 0
33 7 40 20 10 18 30 28 30 15z m2491 -40 c-63 -13 -222 -28 -189 -19 39 12
176 32 213 32 34 0 31 -2 -24 -13z m432 -2 c-7 -2 -19 -2 -25 0 -7 3 -2 5 12
5 14 0 19 -2 13 -5z m1505 0 c-38 -2 -98 -2 -135 0 -38 2 -7 3 67 3 74 0 105
-1 68 -3z m-1011 -100 c-2 -21 -4 -6 -4 32 0 39 2 55 4 38 2 -18 2 -50 0 -70z
m-2997 61 c0 -22 -2 -24 -14 -14 -8 6 -12 18 -9 26 9 23 23 16 23 -12z m594
-53 c-3 -40 -9 -70 -11 -67 -3 3 -2 37 2 76 4 39 9 69 12 67 2 -3 1 -37 -3
-76z m353 37 c-3 -7 -5 -2 -5 12 0 14 2 19 5 13 2 -7 2 -19 0 -25z m-142 -8
c-3 -5 -11 -10 -16 -10 -6 0 -7 5 -4 10 3 6 11 10 16 10 6 0 7 -4 4 -10z
m-368 -16 c-8 -8 -167 -7 -175 1 -3 3 37 5 88 5 51 0 90 -3 87 -6z m520 -51
c-3 -10 -5 -4 -5 12 0 17 2 24 5 18 2 -7 2 -21 0 -30z m783 12 c0 -24 43 -45
95 -46 l50 -1 -70 -23 c-93 -32 -119 -32 -112 -2 3 12 9 39 12 59 7 35 25 44
25 13z m-2283 -77 c-2 -13 -4 -3 -4 22 0 25 2 35 4 23 2 -13 2 -33 0 -45z
m1510 -10 c-3 -7 -5 -2 -5 12 0 14 2 19 5 13 2 -7 2 -19 0 -25z m3293 22 c18
-6 7 -8 -42 -9 -39 -1 -68 3 -68 9 0 12 74 12 110 0z m-2303 -47 c-7 -6 -308
-83 -327 -82 -34 0 18 17 130 43 189 44 190 44 191 69 2 21 2 21 6 -1 3 -13 2
-26 0 -29z m747 17 c8 -8 -46 -116 -81 -159 l-18 -22 -18 34 -18 33 38 67 c34
61 41 67 63 62 14 -4 29 -10 34 -15z m146 -161 l0 -181 -27 7 c-16 3 -32 11
-38 16 -6 6 1 6 18 0 16 -6 30 -11 33 -11 2 0 4 79 4 175 0 96 2 175 5 175 3
0 5 -81 5 -181z m-2279 108 c-8 -19 -18 -27 -35 -27 -14 0 -28 5 -31 10 -4 6
6 10 23 10 31 0 41 13 43 53 2 21 2 21 6 1 2 -11 -1 -32 -6 -47z m-2584 21
c-3 -8 -6 -5 -6 6 -1 11 2 17 5 13 3 -3 4 -12 1 -19z m2802 -135 c30 -128 31
-138 15 -150 -14 -10 -22 -9 -45 8 -27 19 -29 26 -29 82 0 34 -3 92 -7 130 -5
62 -4 67 14 67 17 0 24 -18 52 -137z m-1322 35 c-2 -18 -4 -4 -4 32 0 36 2 50
4 33 2 -18 2 -48 0 -65z m3530 -5 c-2 -21 -4 -6 -4 32 0 39 2 55 4 38 2 -18 2
-50 0 -70z m-5010 5 c-2 -18 -4 -6 -4 27 0 33 2 48 4 33 2 -15 2 -42 0 -60z
m2990 60 c-3 -8 -6 -5 -6 6 -1 11 2 17 5 13 3 -3 4 -12 1 -19z m-3100 -335
c-1 -54 -3 -10 -3 97 0 107 2 151 3 98 2 -54 2 -142 0 -195z m3110 255 c-3 -8
-6 -5 -6 6 -1 11 2 17 5 13 3 -3 4 -12 1 -19z m1744 -1 c-10 -9 -11 -8 -5 6 3
10 9 15 12 12 3 -3 0 -11 -7 -18z m39 -42 c0 -33 -2 -35 -20 -25 -20 10 -20
12 -3 35 10 13 19 25 21 25 1 0 2 -16 2 -35z m-3293 -87 c-2 -18 -4 -6 -4 27
0 33 2 48 4 33 2 -15 2 -42 0 -60z m1510 66 c-3 -3 -12 -4 -19 -1 -8 3 -5 6 6
6 11 1 17 -2 13 -5z m-1587 -40 c0 -8 -4 -12 -10 -9 -5 3 -10 13 -10 21 0 8 5
12 10 9 6 -3 10 -13 10 -21z m147 -121 c-2 -27 -3 -5 -3 47 0 52 1 74 3 48 2
-27 2 -69 0 -95z m3163 96 c19 -11 26 -17 15 -13 -53 17 -54 17 -71 -25 -9
-23 -18 -40 -20 -38 -6 6 27 97 34 97 4 -1 23 -10 42 -21z m-1820 -67 c0 -5
-12 -14 -27 -21 l-28 -12 25 21 c29 22 30 23 30 12z m-2923 -34 c-3 -7 -5 -2
-5 12 0 14 2 19 5 13 2 -7 2 -19 0 -25z m1513 2 c0 -6 -11 -15 -24 -20 -16 -6
-26 -19 -29 -37 -3 -23 -4 -22 -6 10 0 20 4 38 9 38 6 1 14 2 19 3 5 0 13 4
17 9 10 10 14 9 14 -3z m1475 0 c-3 -5 -12 -10 -18 -10 -7 0 -6 4 3 10 19 12
23 12 15 0z m1998 3 c-7 -2 -19 -2 -25 0 -7 3 -2 5 12 5 14 0 19 -2 13 -5z
m-4976 -75 c-3 -7 -5 -2 -5 12 0 14 2 19 5 13 2 -7 2 -19 0 -25z m1 -99 c-18
-12 -38 -11 -38 1 0 6 9 10 20 10 15 0 20 7 21 28 l2 27 4 -29 c3 -17 -1 -32
-9 -37z m6203 -11 l-39 -41 -178 -18 c-188 -19 -241 -22 -232 -14 2 3 83 12
179 21 206 18 245 27 260 57 12 22 28 37 41 37 4 0 -10 -19 -31 -42z m-1224
-115 c-3 -10 -5 -2 -5 17 0 19 2 27 5 18 2 -10 2 -26 0 -35z m-4551 -29 c-3
-8 -17 -13 -33 -13 l-28 2 28 4 c23 4 27 9 28 41 2 32 3 33 6 9 3 -16 2 -35
-1 -43z m5847 -38 c-15 -27 -364 -266 -386 -265 -20 1 -20 2 -3 6 11 3 101 63
200 133 l181 127 5 44 4 44 4 -37 c2 -21 0 -44 -5 -52z m-2883 29 c0 -7 -51
-31 -80 -39 -14 -3 -2 5 25 18 57 28 55 27 55 21z m3073 -2 c-12 -2 -33 -20
-48 -39 -19 -25 -33 -34 -53 -33 l-27 1 30 9 c17 5 38 22 48 39 14 22 25 30
45 29 23 -1 23 -2 5 -6z m-5753 -11 c0 -11 -46 -32 -68 -31 -12 0 39 30 66 38
1 1 2 -3 2 -7z m2842 -24 c-12 -12 -113 -40 -120 -33 -3 2 23 12 57 21 41 12
61 22 62 33 0 12 2 12 6 3 3 -8 1 -18 -5 -24z m275 -45 c-2 -16 -4 -5 -4 22 0
28 2 40 4 28 2 -13 2 -35 0 -50z m1140 -20 c-2 -16 -4 -5 -4 22 0 28 2 40 4
28 2 -13 2 -35 0 -50z m-1757 17 c-41 -21 -79 -39 -85 -39 -5 0 24 18 65 39
41 21 80 39 85 39 6 0 -24 -18 -65 -39z m-1698 -34 c-9 -18 -11 -16 -11 19 0
33 1 37 10 21 8 -12 8 -25 1 -40z m2221 37 c-7 -2 -19 -2 -25 0 -7 3 -2 5 12
5 14 0 19 -2 13 -5z m2543 -240 c-4 -10 -29 -12 -98 -11 l-93 2 93 3 92 4 2
102 2 102 3 -94 c2 -52 2 -100 -1 -108z m-4694 154 c-7 -8 -13 -77 -15 -183
l-3 -169 -2 176 c-1 124 1 178 10 187 16 16 24 6 10 -11z m2256 -9 c-9 -13
-24 -24 -34 -25 -14 -1 -15 -1 -3 3 10 3 19 14 22 25 3 10 11 19 17 19 9 0 8
-6 -2 -22z m1119 -60 c-2 -18 -4 -6 -4 27 0 33 2 48 4 33 2 -15 2 -42 0 -60z
m1113 -75 c-46 -49 -88 -91 -94 -94 -17 -10 -177 -41 -183 -36 -2 3 22 10 54
17 121 24 125 26 213 115 46 47 86 85 88 85 2 0 -33 -39 -78 -87z m-200 63 c0
-2 -8 -10 -17 -17 -16 -13 -17 -12 -4 4 13 16 21 21 21 13z m-5823 -193 c-2
-37 -3 -9 -3 62 0 72 1 102 3 68 2 -34 2 -93 0 -130z m1984 113 c-6 -7 -25
-19 -40 -26 -16 -6 -32 -21 -35 -33 -6 -26 -66 -110 -73 -103 -3 2 11 26 31
52 20 26 36 55 36 64 0 10 16 24 40 35 22 10 40 23 40 28 0 6 3 7 6 4 4 -4 2
-13 -5 -21z m2916 -23 c-3 -10 -5 -2 -5 17 0 19 2 27 5 18 2 -10 2 -26 0 -35z
m-3247 23 c-16 -14 -80 -39 -80 -30 0 4 77 41 90 43 2 1 -2 -5 -10 -13z m-14
-145 c-4 -5 -21 -20 -39 -32 l-32 -22 34 36 c31 33 52 44 37 18z m3481 -118
c-2 -16 -4 -5 -4 22 0 28 2 40 4 28 2 -13 2 -35 0 -50z m-3413 42 c-7 -17 -20
-20 -28 -6 -4 5 0 12 6 14 23 9 28 7 22 -8z m-176 -41 c-7 -15 -14 -21 -16
-15 -2 7 2 18 8 26 18 22 21 18 8 -11z m227 -18 c-28 -37 -51 -43 -90 -26 -14
7 -10 8 16 4 33 -5 39 -2 64 30 15 20 30 34 32 32 3 -3 -7 -21 -22 -40z m132
-83 c-20 -2 -52 -2 -70 0 -17 2 0 4 38 4 39 0 53 -2 32 -4z m-1720 -140 c-3
-10 -5 -2 -5 17 0 19 2 27 5 18 2 -10 2 -26 0 -35z"/>
</g>
</svg>
